<svg width="33" height="33" viewBox="0 0 33 33" fill="none" xmlns="http://www.w3.org/2000/svg">
<rect x="1.39648" y="1" width="31" height="31" rx="15.5" fill="#3E321F"/>
<rect x="1.39648" y="1" width="31" height="31" rx="15.5" stroke="#F1FFFF"/>
<path d="M16.8965 16.5C17.9574 16.5 18.9748 16.0786 19.7249 15.3284C20.4751 14.5783 20.8965 13.5609 20.8965 12.5C20.8965 11.4391 20.4751 10.4217 19.7249 9.67157C18.9748 8.92143 17.9574 8.5 16.8965 8.5C15.8356 8.5 14.8182 8.92143 14.0681 9.67157C13.3179 10.4217 12.8965 11.4391 12.8965 12.5C12.8965 13.5609 13.3179 14.5783 14.0681 15.3284C14.8182 16.0786 15.8356 16.5 16.8965 16.5ZM15.4684 18C12.3902 18 9.89648 20.4937 9.89648 23.5719C9.89648 24.0844 10.3121 24.5 10.8246 24.5H22.9684C23.4809 24.5 23.8965 24.0844 23.8965 23.5719C23.8965 20.4937 21.4027 18 18.3246 18H15.4684Z" fill="#F1FFFF"/>
</svg>
