<svg width="21" height="20" viewBox="0 0 21 20" fill="none" xmlns="http://www.w3.org/2000/svg">
<path d="M18.6716 8.36775H18.0003V8.33317H10.5003V11.6665H15.2099C14.5228 13.6069 12.6766 14.9998 10.5003 14.9998C7.73908 14.9998 5.50033 12.7611 5.50033 9.99984C5.50033 7.23859 7.73908 4.99984 10.5003 4.99984C11.7749 4.99984 12.9345 5.48067 13.8174 6.26609L16.1745 3.909C14.6862 2.52192 12.6953 1.6665 10.5003 1.6665C5.89824 1.6665 2.16699 5.39775 2.16699 9.99984C2.16699 14.6019 5.89824 18.3332 10.5003 18.3332C15.1024 18.3332 18.8337 14.6019 18.8337 9.99984C18.8337 9.44109 18.7762 8.89567 18.6716 8.36775Z" fill="#FFC107"/>
<path d="M3.12793 6.12109L5.86585 8.129C6.60668 6.29484 8.40085 4.99984 10.5004 4.99984C11.775 4.99984 12.9346 5.48067 13.8175 6.26609L16.1746 3.909C14.6863 2.52192 12.6954 1.6665 10.5004 1.6665C7.2996 1.6665 4.52376 3.47359 3.12793 6.12109Z" fill="#FF3D00"/>
<path d="M10.4998 18.3331C12.6523 18.3331 14.6081 17.5094 16.0869 16.1698L13.5077 13.9873C12.6429 14.645 11.5862 15.0007 10.4998 14.9998C8.3323 14.9998 6.49189 13.6177 5.79855 11.689L3.08105 13.7827C4.46022 16.4815 7.26105 18.3331 10.4998 18.3331Z" fill="#4CAF50"/>
<path d="M18.6713 8.36808H18V8.3335H10.5V11.6668H15.2096C14.8809 12.5903 14.2889 13.3973 13.5067 13.9881L13.5079 13.9872L16.0871 16.1697C15.9046 16.3356 18.8333 14.1668 18.8333 10.0002C18.8333 9.44141 18.7758 8.896 18.6713 8.36808Z" fill="#1976D2"/>
</svg>
