<svg width="20" height="20" viewBox="0 0 20 20" fill="none" xmlns="http://www.w3.org/2000/svg">
<g clip-path="url(#clip0_1135_2)">
<path d="M12.4321 18.3021C13.2825 18.8452 14.2927 19.0817 15.2957 18.9726C16.2987 18.8635 17.2345 18.4153 17.9481 17.7021L18.5681 17.0821C18.8445 16.8054 18.9998 16.4302 18.9998 16.0391C18.9998 15.648 18.8445 15.2729 18.5681 14.9961L15.9681 12.3961C15.6911 12.1196 15.3156 11.9643 14.9241 11.9643C14.5327 11.9643 14.1572 12.1196 13.8801 12.3961C13.6034 12.6725 13.2283 12.8277 12.8371 12.8277C12.446 12.8277 12.0709 12.6725 11.7941 12.3961L7.61214 8.21411C7.33576 7.93736 7.18052 7.56223 7.18052 7.17111C7.18052 6.77999 7.33576 6.40486 7.61214 6.12811C7.88864 5.85102 8.04393 5.47556 8.04393 5.08411C8.04393 4.69266 7.88864 4.3172 7.61214 4.04011L5.00014 1.43211C4.72339 1.15573 4.34826 1.00049 3.95714 1.00049C3.56602 1.00049 3.19089 1.15573 2.91414 1.43211L2.29414 2.05211C1.58061 2.76558 1.13216 3.70135 1.02304 4.70448C0.913928 5.7076 1.1507 6.71791 1.69414 7.56811C4.55444 11.7996 8.19958 15.4434 12.4321 18.3021Z" stroke="#1A1A1A" stroke-opacity="0.61" stroke-width="2" stroke-linecap="round" stroke-linejoin="round"/>
</g>
<defs>
<clipPath id="clip0_1135_2">
<rect width="20" height="20" fill="white"/>
</clipPath>
</defs>
</svg>
