<svg width="24" height="24" viewBox="0 0 24 24" fill="none" xmlns="http://www.w3.org/2000/svg">
<path d="M12 0.75C13.4774 0.75 14.9403 1.04099 16.3052 1.60636C17.6701 2.17172 18.9103 3.00039 19.955 4.04505C20.9996 5.08971 21.8283 6.3299 22.3936 7.69481C22.959 9.05972 23.25 10.5226 23.25 12C23.25 13.4774 22.959 14.9403 22.3936 16.3052C21.8283 17.6701 20.9996 18.9103 19.955 19.955C18.9103 20.9996 17.6701 21.8283 16.3052 22.3936C14.9403 22.959 13.4774 23.25 12 23.25C10.5226 23.25 9.05972 22.959 7.69481 22.3936C6.3299 21.8283 5.08971 20.9996 4.04505 19.955C3.00039 18.9103 2.17172 17.6701 1.60636 16.3052C1.04099 14.9403 0.75 13.4774 0.75 12C0.75 10.5226 1.04099 9.05972 1.60636 7.69481C2.17172 6.3299 3.00039 5.08971 4.04505 4.04505C5.08971 3.00039 6.3299 2.17172 7.69481 1.60636C9.05972 1.04099 10.5226 0.75 12 0.75ZM12 24C15.1826 24 18.2348 22.7357 20.4853 20.4853C22.7357 18.2348 24 15.1826 24 12C24 8.8174 22.7357 5.76516 20.4853 3.51472C18.2348 1.26428 15.1826 0 12 0C8.8174 0 5.76516 1.26428 3.51472 3.51472C1.26428 5.76516 0 8.8174 0 12C0 15.1826 1.26428 18.2348 3.51472 20.4853C5.76516 22.7357 8.8174 24 12 24ZM11.625 16.5C11.625 16.7062 11.7937 16.875 12 16.875C12.2063 16.875 12.375 16.7062 12.375 16.5V12.375H16.5C16.7062 12.375 16.875 12.2063 16.875 12C16.875 11.7937 16.7062 11.625 16.5 11.625H12.375V7.5C12.375 7.29375 12.2063 7.125 12 7.125C11.7937 7.125 11.625 7.29375 11.625 7.5V11.625H7.5C7.29375 11.625 7.125 11.7937 7.125 12C7.125 12.2063 7.29375 12.375 7.5 12.375H11.625V16.5Z" fill="#074B4B"/>
</svg>
