<svg width="25" height="17" viewBox="0 0 25 17" fill="none" xmlns="http://www.w3.org/2000/svg">
<path d="M2.39648 3C2.39648 2.725 2.73398 2.5 3.14648 2.5H22.6465C23.059 2.5 23.3965 2.725 23.3965 3C23.3965 3.275 23.059 3.5 22.6465 3.5H3.14648C2.73398 3.5 2.39648 3.275 2.39648 3ZM2.39648 8C2.39648 7.725 2.73398 7.5 3.14648 7.5H22.6465C23.059 7.5 23.3965 7.725 23.3965 8C23.3965 8.275 23.059 8.5 22.6465 8.5H3.14648C2.73398 8.5 2.39648 8.275 2.39648 8ZM23.3965 13C23.3965 13.275 23.059 13.5 22.6465 13.5H3.14648C2.73398 13.5 2.39648 13.275 2.39648 13C2.39648 12.725 2.73398 12.5 3.14648 12.5H22.6465C23.059 12.5 23.3965 12.725 23.3965 13Z" fill="#3E321F"/>
</svg>
