<svg width="136" height="42" viewBox="0 0 136 42" fill="none" xmlns="http://www.w3.org/2000/svg">
<g clip-path="url(#clip0_1103_1499)">
<g clip-path="url(#clip1_1103_1499)">
<g clip-path="url(#clip2_1103_1499)">
<path d="M130.75 1.00195H5.75C3.26472 1.00195 1.25 3.01667 1.25 5.50195V35.502C1.25 37.9872 3.26472 40.002 5.75 40.002H130.75C133.235 40.002 135.25 37.9872 135.25 35.502V5.50195C135.25 3.01667 133.235 1.00195 130.75 1.00195Z" fill="white"/>
<path d="M68.886 22.2528C66.534 22.2528 64.617 24.0418 64.617 26.5058C64.617 28.9548 66.534 30.7588 68.886 30.7588C71.239 30.7588 73.156 28.9548 73.156 26.5058C73.155 24.0418 71.238 22.2528 68.886 22.2528ZM68.886 29.0848C67.597 29.0848 66.486 28.0218 66.486 26.5068C66.486 24.9758 67.598 23.9288 68.886 23.9288C70.175 23.9288 71.286 24.9758 71.286 26.5068C71.286 28.0208 70.175 29.0848 68.886 29.0848ZM59.572 22.2528C57.22 22.2528 55.303 24.0418 55.303 26.5058C55.303 28.9548 57.22 30.7588 59.572 30.7588C61.925 30.7588 63.842 28.9548 63.842 26.5058C63.842 24.0418 61.925 22.2528 59.572 22.2528ZM59.572 29.0848C58.283 29.0848 57.172 28.0218 57.172 26.5068C57.172 24.9758 58.284 23.9288 59.572 23.9288C60.861 23.9288 61.972 24.9758 61.972 26.5068C61.973 28.0208 60.861 29.0848 59.572 29.0848ZM48.494 23.5588V25.3628H52.812C52.683 26.3778 52.345 27.1188 51.829 27.6338C51.201 28.2618 50.218 28.9548 48.494 28.9548C45.836 28.9548 43.758 26.8118 43.758 24.1538C43.758 21.4958 45.836 19.3528 48.494 19.3528C49.928 19.3528 50.975 19.9168 51.748 20.6418L53.021 19.3688C51.941 18.3378 50.508 17.5488 48.494 17.5488C44.853 17.5488 41.792 20.5128 41.792 24.1538C41.792 27.7948 44.853 30.7588 48.494 30.7588C50.459 30.7588 51.942 30.1138 53.101 28.9058C54.293 27.7138 54.664 26.0378 54.664 24.6848C54.664 24.2668 54.632 23.8798 54.567 23.5578L48.494 23.5588ZM93.802 24.9598C93.448 24.0098 92.368 22.2528 90.161 22.2528C87.97 22.2528 86.149 23.9768 86.149 26.5058C86.149 28.8898 87.954 30.7588 90.37 30.7588C92.319 30.7588 93.447 29.5668 93.915 28.8738L92.465 27.9068C91.982 28.6158 91.321 29.0828 90.37 29.0828C89.42 29.0828 88.743 28.6478 88.308 27.7938L93.995 25.4418L93.802 24.9598ZM88.002 26.3778C87.954 24.7338 89.275 23.8968 90.226 23.8968C90.967 23.8968 91.595 24.2678 91.805 24.7988L88.002 26.3778ZM83.379 30.5018H85.247V18.0008H83.379V30.5018ZM80.317 23.2038H80.253C79.834 22.7038 79.028 22.2528 78.014 22.2528C75.887 22.2528 73.938 24.1218 73.938 26.5228C73.938 28.9068 75.887 30.7598 78.014 30.7598C79.029 30.7598 79.834 30.3088 80.253 29.7938H80.317V30.4058C80.317 32.0328 79.447 32.9028 78.046 32.9028C76.902 32.9028 76.193 32.0818 75.903 31.3888L74.276 32.0658C74.743 33.1928 75.983 34.5788 78.046 34.5788C80.237 34.5788 82.09 33.2898 82.09 30.1478V22.5118H80.318L80.317 23.2038ZM78.175 29.0848C76.886 29.0848 75.807 28.0048 75.807 26.5228C75.807 25.0238 76.886 23.9288 78.175 23.9288C79.447 23.9288 80.446 25.0238 80.446 26.5228C80.446 28.0048 79.447 29.0848 78.175 29.0848ZM102.556 18.0008H98.085V30.5018H99.95V25.7658H102.555C104.623 25.7658 106.657 24.2688 106.657 21.8838C106.657 19.4988 104.624 18.0008 102.556 18.0008ZM102.604 24.0258H99.95V19.7408H102.604C103.999 19.7408 104.791 20.8958 104.791 21.8838C104.791 22.8518 103.999 24.0258 102.604 24.0258ZM114.136 22.2308C112.785 22.2308 111.386 22.8258 110.807 24.1448L112.463 24.8358C112.817 24.1448 113.477 23.9188 114.168 23.9188C115.133 23.9188 116.114 24.4978 116.13 25.5268V25.6558C115.792 25.4628 115.068 25.1738 114.184 25.1738C112.399 25.1738 110.581 26.1548 110.581 27.9878C110.581 29.6608 112.045 30.7378 113.685 30.7378C114.939 30.7378 115.631 30.1748 116.065 29.5148H116.129V30.4798H117.931V25.6868C117.932 23.4688 116.274 22.2308 114.136 22.2308ZM113.91 29.0818C113.3 29.0818 112.447 28.7758 112.447 28.0198C112.447 27.0548 113.509 26.6848 114.426 26.6848C115.245 26.6848 115.632 26.8618 116.13 27.1028C115.985 28.2618 114.988 29.0818 113.91 29.0818ZM124.493 22.5038L122.354 27.9238H122.29L120.07 22.5038H118.06L121.389 30.0788L119.491 34.2928H121.437L126.568 22.5038H124.493ZM107.687 30.5018H109.552V18.0008H107.687V30.5018Z" fill="#242323"/>
<path d="M48.1684 10.7451C48.1684 11.5831 47.9205 12.2501 47.4234 12.7481C46.8594 13.3401 46.1235 13.6361 45.2195 13.6361C44.3535 13.6361 43.6165 13.3361 43.0115 12.7361C42.4055 12.1351 42.1025 11.3911 42.1025 10.5031C42.1025 9.61414 42.4055 8.87014 43.0115 8.27014C43.6165 7.66914 44.3535 7.36914 45.2195 7.36914C45.6495 7.36914 46.0605 7.45314 46.4505 7.62014C46.8415 7.78814 47.1544 8.01114 47.3885 8.29014L46.8614 8.81814C46.4644 8.34314 45.9174 8.10614 45.2184 8.10614C44.5864 8.10614 44.0404 8.32814 43.5794 8.77214C43.1184 9.21614 42.8885 9.79314 42.8885 10.5021C42.8885 11.2111 43.1184 11.7881 43.5794 12.2321C44.0404 12.6761 44.5864 12.8981 45.2184 12.8981C45.8884 12.8981 46.4475 12.6751 46.8945 12.2281C47.1845 11.9371 47.3524 11.5321 47.3974 11.0131H45.2184V10.2921H48.1254C48.1554 10.4491 48.1684 10.6001 48.1684 10.7451Z" fill="#242323"/>
<path d="M52.7784 8.23895H50.0464V10.141H52.5104V10.862H50.0464V12.764H52.7784V13.502H49.2754V7.50195H52.7784V8.23895Z" fill="#242323"/>
<path d="M56.029 13.502H55.258V8.23895H53.582V7.50195H57.705V8.23895H56.029V13.502Z" fill="#242323"/>
<path d="M60.6885 13.502V7.50195H61.4595V13.502H60.6885Z" fill="#242323"/>
<path d="M64.8785 13.502H64.1076V8.23895H62.4316V7.50195H66.5546V8.23895H64.8785V13.502Z" fill="#242323"/>
<path d="M74.3592 12.7271C73.7692 13.3331 73.0362 13.6361 72.1592 13.6361C71.2822 13.6361 70.5492 13.3331 69.9602 12.7271C69.3702 12.1211 69.0762 11.3791 69.0762 10.5021C69.0762 9.62519 69.3702 8.88319 69.9602 8.27719C70.5492 7.67119 71.2822 7.36719 72.1592 7.36719C73.0312 7.36719 73.7632 7.67219 74.3552 8.28119C74.9472 8.89019 75.2432 9.63019 75.2432 10.5021C75.2432 11.3791 74.9482 12.1211 74.3592 12.7271ZM70.5292 12.2241C70.9732 12.6741 71.5162 12.8981 72.1592 12.8981C72.8022 12.8981 73.3462 12.6731 73.7892 12.2241C74.2332 11.7741 74.4562 11.2001 74.4562 10.5021C74.4562 9.80419 74.2332 9.23019 73.7892 8.78019C73.3462 8.33019 72.8022 8.10619 72.1592 8.10619C71.5162 8.10619 70.9732 8.33119 70.5292 8.78019C70.0862 9.23019 69.8632 9.80419 69.8632 10.5021C69.8632 11.2001 70.0862 11.7741 70.5292 12.2241Z" fill="#242323"/>
<path d="M76.3252 13.502V7.50195H77.2633L80.1793 12.169H80.2122L80.1793 11.013V7.50195H80.9502V13.502H80.1452L77.0943 8.60795H77.0612L77.0943 9.76395V13.502H76.3252Z" fill="#242323"/>
<path d="M48.1684 10.7451C48.1684 11.5831 47.9205 12.2501 47.4234 12.7481C46.8594 13.3401 46.1235 13.6361 45.2195 13.6361C44.3535 13.6361 43.6165 13.3361 43.0115 12.7361C42.4055 12.1351 42.1025 11.3911 42.1025 10.5031C42.1025 9.61414 42.4055 8.87014 43.0115 8.27014C43.6165 7.66914 44.3535 7.36914 45.2195 7.36914C45.6495 7.36914 46.0605 7.45314 46.4505 7.62014C46.8415 7.78814 47.1544 8.01114 47.3885 8.29014L46.8614 8.81814C46.4644 8.34314 45.9174 8.10614 45.2184 8.10614C44.5864 8.10614 44.0404 8.32814 43.5794 8.77214C43.1184 9.21614 42.8885 9.79314 42.8885 10.5021C42.8885 11.2111 43.1184 11.7881 43.5794 12.2321C44.0404 12.6761 44.5864 12.8981 45.2184 12.8981C45.8884 12.8981 46.4475 12.6751 46.8945 12.2281C47.1845 11.9371 47.3524 11.5321 47.3974 11.0131H45.2184V10.2921H48.1254C48.1554 10.4491 48.1684 10.6001 48.1684 10.7451Z" stroke="#242323" stroke-width="0.2" stroke-miterlimit="10"/>
<path d="M52.7784 8.23895H50.0464V10.141H52.5104V10.862H50.0464V12.764H52.7784V13.502H49.2754V7.50195H52.7784V8.23895Z" stroke="#242323" stroke-width="0.2" stroke-miterlimit="10"/>
<path d="M56.029 13.502H55.258V8.23895H53.582V7.50195H57.705V8.23895H56.029V13.502Z" stroke="#242323" stroke-width="0.2" stroke-miterlimit="10"/>
<path d="M60.6885 13.502V7.50195H61.4595V13.502H60.6885Z" stroke="#242323" stroke-width="0.2" stroke-miterlimit="10"/>
<path d="M64.8785 13.502H64.1076V8.23895H62.4316V7.50195H66.5546V8.23895H64.8785V13.502Z" stroke="#242323" stroke-width="0.2" stroke-miterlimit="10"/>
<path d="M74.3592 12.7271C73.7692 13.3331 73.0362 13.6361 72.1592 13.6361C71.2822 13.6361 70.5492 13.3331 69.9602 12.7271C69.3702 12.1211 69.0762 11.3791 69.0762 10.5021C69.0762 9.62519 69.3702 8.88319 69.9602 8.27719C70.5492 7.67119 71.2822 7.36719 72.1592 7.36719C73.0312 7.36719 73.7632 7.67219 74.3552 8.28119C74.9472 8.89019 75.2432 9.63019 75.2432 10.5021C75.2432 11.3791 74.9482 12.1211 74.3592 12.7271ZM70.5292 12.2241C70.9732 12.6741 71.5162 12.8981 72.1592 12.8981C72.8022 12.8981 73.3462 12.6731 73.7892 12.2241C74.2332 11.7741 74.4562 11.2001 74.4562 10.5021C74.4562 9.80419 74.2332 9.23019 73.7892 8.78019C73.3462 8.33019 72.8022 8.10619 72.1592 8.10619C71.5162 8.10619 70.9732 8.33119 70.5292 8.78019C70.0862 9.23019 69.8632 9.80419 69.8632 10.5021C69.8632 11.2001 70.0862 11.7741 70.5292 12.2241Z" stroke="#242323" stroke-width="0.2" stroke-miterlimit="10"/>
<path d="M76.3252 13.502V7.50195H77.2633L80.1793 12.169H80.2122L80.1793 11.013V7.50195H80.9502V13.502H80.1452L77.0943 8.60795H77.0612L77.0943 9.76395V13.502H76.3252Z" stroke="#242323" stroke-width="0.2" stroke-miterlimit="10"/>
<path fill-rule="evenodd" clip-rule="evenodd" d="M26.6045 14.7344L15.083 8.0526C14.6479 7.792 14.1401 7.6416 13.5967 7.6416C12.4755 7.6416 11.4895 8.32088 11.0166 9.27047L11.1032 9.35704L21.5432 19.7948L26.6045 14.7344ZM10.7227 10.3907C10.7207 10.433 10.7197 10.4755 10.7197 10.5182V30.4858C10.7197 30.5284 10.7207 30.5709 10.7227 30.6132L20.836 20.5018L10.7227 10.3907ZM11.0167 31.7333C11.4896 32.683 12.4757 33.3623 13.5967 33.3623C14.1284 33.3623 14.6276 33.2185 15.0557 32.9662L15.0897 32.9463L26.6244 26.2889L21.5432 21.2088L11.1032 31.6468L11.0167 31.7333ZM27.5211 25.7713L32.2182 23.0604C33.1205 22.5733 33.733 21.6221 33.733 20.5252C33.733 19.4362 33.1287 18.4897 32.2354 18.001L32.2252 17.994L27.4997 15.2535L22.2504 20.5018L27.5211 25.7713Z" fill="#242323"/>
<path d="M130.75 1.00195H5.75C3.26472 1.00195 1.25 3.01667 1.25 5.50195V35.502C1.25 37.9872 3.26472 40.002 5.75 40.002H130.75C133.235 40.002 135.25 37.9872 135.25 35.502V5.50195C135.25 3.01667 133.235 1.00195 130.75 1.00195Z" stroke="#242323"/>
</g>
</g>
</g>
<defs>
<clipPath id="clip0_1103_1499">
<rect width="136" height="41" fill="white" transform="translate(0 0.5)"/>
</clipPath>
<clipPath id="clip1_1103_1499">
<rect width="136" height="41" fill="white" transform="translate(0 0.5)"/>
</clipPath>
<clipPath id="clip2_1103_1499">
<rect width="136" height="41" fill="white" transform="translate(0 0.5)"/>
</clipPath>
</defs>
</svg>
