<svg width="121" height="42" viewBox="0 0 121 42" fill="none" xmlns="http://www.w3.org/2000/svg">
<g clip-path="url(#clip0_1103_1520)">
<g clip-path="url(#clip1_1103_1520)">
<g clip-path="url(#clip2_1103_1520)">
<path d="M115.75 1.00195H5.75C3.26472 1.00195 1.25 3.01667 1.25 5.50195V35.502C1.25 37.9872 3.26472 40.002 5.75 40.002H115.75C118.235 40.002 120.25 37.9872 120.25 35.502V5.50195C120.25 3.01667 118.235 1.00195 115.75 1.00195Z" fill="white"/>
<path d="M82.2759 19.7031V21.9941H80.8398V23.4966H82.2759V28.6016C82.2759 30.3447 83.0645 31.042 85.0483 31.042C85.397 31.042 85.729 31.0005 86.0195 30.9507V29.4648C85.7705 29.4897 85.6128 29.5063 85.3389 29.5063C84.4507 29.5063 84.0606 29.0913 84.0606 28.145V23.4966H86.0195V21.9941H84.0606V19.7031H82.2759Z" fill="#242323"/>
<path d="M91.0732 31.1665C93.7128 31.1665 95.3315 29.3984 95.3315 26.4682C95.3315 23.5547 93.7045 21.7783 91.0732 21.7783C88.4335 21.7783 86.8066 23.5547 86.8066 26.4682C86.8066 29.3984 88.4252 31.1665 91.0732 31.1665ZM91.0732 29.581C89.5209 29.581 88.6494 28.4438 88.6494 26.4682C88.6494 24.5093 89.5209 23.3638 91.0732 23.3638C92.6171 23.3638 93.497 24.5093 93.497 26.4682C93.497 28.4355 92.6171 29.581 91.0732 29.581Z" fill="#242323"/>
<path d="M96.7168 30.9917H98.5015V25.6543C98.5015 24.3843 99.456 23.5293 100.809 23.5293C101.124 23.5293 101.655 23.5874 101.805 23.6372V21.8774C101.614 21.8276 101.274 21.8027 101.008 21.8027C99.8296 21.8027 98.8252 22.4502 98.5679 23.3384H98.435V21.9521H96.7168V30.9917Z" fill="#242323"/>
<path d="M106.236 23.2974C107.556 23.2974 108.419 24.2187 108.461 25.6382H103.895C103.995 24.227 104.916 23.2974 106.236 23.2974ZM108.452 28.5517C108.12 29.2573 107.382 29.6474 106.302 29.6474C104.875 29.6474 103.953 28.6431 103.895 27.0576V26.958H110.279V26.3354C110.279 23.4966 108.759 21.7783 106.244 21.7783C103.696 21.7783 102.077 23.6128 102.077 26.5015C102.077 29.3901 103.663 31.1665 106.253 31.1665C108.32 31.1665 109.764 30.1704 110.171 28.5517H108.452Z" fill="#242323"/>
<path d="M70.5723 27.6542C70.71 29.8739 72.5597 31.2935 75.3128 31.2935C78.2552 31.2935 80.0964 29.8051 80.0964 27.4305C80.0964 25.5636 79.0468 24.5311 76.5001 23.9375L75.1322 23.602C73.5147 23.2234 72.8608 22.7158 72.8608 21.8296C72.8608 20.7112 73.8761 19.9799 75.3989 19.9799C76.8443 19.9799 77.8423 20.694 78.0229 21.8382H79.8985C79.7867 19.7476 77.9455 18.2764 75.4247 18.2764C72.7146 18.2764 70.9078 19.7476 70.9078 21.9587C70.9078 23.7826 71.9317 24.8667 74.1772 25.3915L75.7774 25.7786C77.4207 26.1658 78.1434 26.7336 78.1434 27.68C78.1434 28.7813 77.0077 29.5814 75.4591 29.5814C73.7986 29.5814 72.6457 28.8329 72.4823 27.6542H70.5723Z" fill="#242323"/>
<path d="M52.0845 21.8027C50.856 21.8027 49.7934 22.417 49.2456 23.4463H49.1128V21.9521H47.3945V33.9966H49.1792V29.622H49.3203C49.7934 30.5766 50.8144 31.1411 52.1011 31.1411C54.3838 31.1411 55.8364 29.3398 55.8364 26.4677C55.8364 23.5957 54.3838 21.8027 52.0845 21.8027ZM51.5781 29.539C50.084 29.539 49.146 28.3603 49.146 26.4761C49.146 24.5835 50.084 23.4048 51.5864 23.4048C53.0972 23.4048 54.0019 24.5586 54.0019 26.4677C54.0019 28.3852 53.0972 29.539 51.5781 29.539Z" fill="#242323"/>
<path d="M62.0816 21.8027C60.853 21.8027 59.7905 22.417 59.2427 23.4463H59.1099V21.9521H57.3916V33.9966H59.1763V29.622H59.3174C59.7905 30.5766 60.8115 31.1411 62.0982 31.1411C64.3809 31.1411 65.8335 29.3398 65.8335 26.4677C65.8335 23.5957 64.3809 21.8027 62.0816 21.8027ZM61.5752 29.539C60.0811 29.539 59.1431 28.3603 59.1431 26.4761C59.1431 24.5835 60.0811 23.4048 61.5835 23.4048C63.0943 23.4048 63.999 24.5586 63.999 26.4677C63.999 28.3852 63.0943 29.539 61.5752 29.539Z" fill="#242323"/>
<path d="M44.1928 30.992H46.2406L41.758 18.5771H39.6847L35.2021 30.992H37.181L38.3252 27.6968H43.0573L44.1928 30.992ZM40.6224 20.8312H40.7687L42.5668 26.0794H38.8157L40.6224 20.8312Z" fill="#242323"/>
<path d="M36.4014 9.21289V15.2019H38.5637C40.3484 15.2019 41.3818 14.1021 41.3818 12.1887C41.3818 10.3044 40.3401 9.21289 38.5637 9.21289H36.4014ZM37.3311 10.0596H38.46C39.7009 10.0596 40.4355 10.8481 40.4355 12.2012C40.4355 13.575 39.7134 14.3552 38.46 14.3552H37.3311V10.0596Z" fill="#242323"/>
<path d="M44.5474 15.2888C45.8672 15.2888 46.6766 14.4047 46.6766 12.9396C46.6766 11.4829 45.8631 10.5947 44.5474 10.5947C43.2276 10.5947 42.4141 11.4829 42.4141 12.9396C42.4141 14.4047 43.2234 15.2888 44.5474 15.2888ZM44.5474 14.496C43.7713 14.496 43.3355 13.9274 43.3355 12.9396C43.3355 11.9601 43.7713 11.3874 44.5474 11.3874C45.3194 11.3874 45.7593 11.9601 45.7593 12.9396C45.7593 13.9233 45.3194 14.496 44.5474 14.496Z" fill="#242323"/>
<path d="M53.5686 10.6816H52.6763L51.8711 14.1306H51.8005L50.8709 10.6816H50.0159L49.0862 14.1306H49.0198L48.2105 10.6816H47.3057L48.5508 15.2014H49.468L50.3977 11.8728H50.4683L51.4021 15.2014H52.3276L53.5686 10.6816Z" fill="#242323"/>
<path d="M54.5957 15.2016H55.4881V12.5578C55.4881 11.8522 55.9073 11.4123 56.5672 11.4123C57.2271 11.4123 57.5425 11.7734 57.5425 12.4997V15.2016H58.4349V12.2756C58.4349 11.2006 57.8787 10.5947 56.8702 10.5947C56.1895 10.5947 55.7413 10.8976 55.5213 11.3998H55.4549V10.6818H54.5957V15.2016Z" fill="#242323"/>
<path d="M59.8398 15.2017H60.7321V8.91797H59.8398V15.2017Z" fill="#242323"/>
<path d="M64.0884 15.2888C65.4082 15.2888 66.2176 14.4047 66.2176 12.9396C66.2176 11.4829 65.4041 10.5947 64.0884 10.5947C62.7686 10.5947 61.9551 11.4829 61.9551 12.9396C61.9551 14.4047 62.7644 15.2888 64.0884 15.2888ZM64.0884 14.496C63.3123 14.496 62.8765 13.9274 62.8765 12.9396C62.8765 11.9601 63.3123 11.3874 64.0884 11.3874C64.8604 11.3874 65.3003 11.9601 65.3003 12.9396C65.3003 13.9233 64.8604 14.496 64.0884 14.496Z" fill="#242323"/>
<path d="M68.8765 14.5251C68.3909 14.5251 68.0381 14.2885 68.0381 13.8818C68.0381 13.4833 68.3204 13.2717 68.9429 13.2302L70.0469 13.1596V13.5373C70.0469 14.0976 69.5489 14.5251 68.8765 14.5251ZM68.6482 15.2763C69.2417 15.2763 69.7356 15.019 70.0054 14.5666H70.076V15.2016H70.9351V12.1137C70.9351 11.1591 70.2959 10.5947 69.1629 10.5947C68.1377 10.5947 67.4073 11.0927 67.316 11.8688H68.1792C68.2789 11.5493 68.6233 11.3666 69.1214 11.3666C69.7315 11.3666 70.0469 11.6364 70.0469 12.1137V12.5039L68.8226 12.5744C67.7476 12.6408 67.1416 13.1098 67.1416 13.9233C67.1416 14.7492 67.7767 15.2763 68.6482 15.2763Z" fill="#242323"/>
<path d="M73.9628 15.2764C74.5854 15.2764 75.1125 14.9817 75.3823 14.4878H75.4528V15.2017H76.3078V8.91797H75.4155V11.3999H75.3491C75.1042 10.9019 74.5812 10.6072 73.9628 10.6072C72.8215 10.6072 72.0869 11.512 72.0869 12.9397C72.0869 14.3716 72.8132 15.2764 73.9628 15.2764ZM74.216 11.4082C74.9631 11.4082 75.4321 12.0018 75.4321 12.9439C75.4321 13.8902 74.9672 14.4754 74.216 14.4754C73.4606 14.4754 73.0082 13.8985 73.0082 12.9397C73.0082 11.9893 73.4648 11.4082 74.216 11.4082Z" fill="#242323"/>
<path d="M82.0942 15.2888C83.414 15.2888 84.2233 14.4047 84.2233 12.9396C84.2233 11.4829 83.4099 10.5947 82.0942 10.5947C80.7744 10.5947 79.9609 11.4829 79.9609 12.9396C79.9609 14.4047 80.7702 15.2888 82.0942 15.2888ZM82.0942 14.496C81.3181 14.496 80.8823 13.9274 80.8823 12.9396C80.8823 11.9601 81.3181 11.3874 82.0942 11.3874C82.8661 11.3874 83.3061 11.9601 83.3061 12.9396C83.3061 13.9233 82.8661 14.496 82.0942 14.496Z" fill="#242323"/>
<path d="M85.4053 15.2016H86.2977V12.5578C86.2977 11.8522 86.7169 11.4123 87.3768 11.4123C88.0367 11.4123 88.3521 11.7734 88.3521 12.4997V15.2016H89.2444V12.2756C89.2444 11.2006 88.6883 10.5947 87.6797 10.5947C86.9991 10.5947 86.5508 10.8976 86.3309 11.3998H86.2645V10.6818H85.4053V15.2016Z" fill="#242323"/>
<path d="M93.3538 9.55762V10.7031H92.6357V11.4543H93.3538V14.0068C93.3538 14.8784 93.748 15.227 94.74 15.227C94.9143 15.227 95.0803 15.2063 95.2256 15.1814V14.4384C95.1011 14.4509 95.0222 14.4592 94.8852 14.4592C94.4412 14.4592 94.2461 14.2517 94.2461 13.7785V11.4543H95.2256V10.7031H94.2461V9.55762H93.3538Z" fill="#242323"/>
<path d="M96.4238 15.2017H97.3161V12.5621C97.3161 11.8772 97.7229 11.4165 98.4533 11.4165C99.0842 11.4165 99.4204 11.7818 99.4204 12.504V15.2017H100.312V12.284C100.312 11.209 99.7192 10.5989 98.7563 10.5989C98.0756 10.5989 97.5983 10.9019 97.3784 11.4082H97.3078V8.91797H96.4238V15.2017Z" fill="#242323"/>
<path d="M103.531 11.3542C104.191 11.3542 104.623 11.8149 104.644 12.5246H102.361C102.411 11.819 102.872 11.3542 103.531 11.3542ZM104.64 13.9814C104.474 14.3342 104.104 14.5292 103.565 14.5292C102.851 14.5292 102.39 14.027 102.361 13.2343V13.1845H105.553V12.8732C105.553 11.4538 104.793 10.5947 103.536 10.5947C102.261 10.5947 101.452 11.5119 101.452 12.9562C101.452 14.4006 102.245 15.2888 103.54 15.2888C104.573 15.2888 105.295 14.7907 105.499 13.9814H104.64Z" fill="#242323"/>
<path d="M25.519 20.8023C25.5407 19.1213 26.4434 17.5307 27.8756 16.6502C26.9721 15.3599 25.4588 14.5418 23.8844 14.4925C22.2052 14.3163 20.5772 15.4974 19.7215 15.4974C18.8492 15.4974 17.5317 14.51 16.113 14.5392C14.2637 14.599 12.5398 15.6503 11.6401 17.2671C9.70605 20.6155 11.1487 25.5366 13.0013 28.2432C13.9282 29.5685 15.0115 31.049 16.4289 30.9965C17.816 30.9389 18.334 30.112 20.0083 30.112C21.6671 30.112 22.1531 30.9965 23.5993 30.9631C25.0877 30.9389 26.0254 29.6319 26.9198 28.294C27.5858 27.3496 28.0983 26.3059 28.4382 25.2014C26.6891 24.4616 25.521 22.7014 25.519 20.8023Z" fill="#242323"/>
<path d="M22.7872 12.7132C23.5988 11.739 23.9986 10.4869 23.9017 9.22266C22.6619 9.35288 21.5167 9.94544 20.6942 10.8822C19.8899 11.7976 19.4713 13.0277 19.5505 14.2436C20.7907 14.2564 22.01 13.6799 22.7872 12.7132Z" fill="#242323"/>
<path d="M115.75 1.00195H5.75C3.26472 1.00195 1.25 3.01667 1.25 5.50195V35.502C1.25 37.9872 3.26472 40.002 5.75 40.002H115.75C118.235 40.002 120.25 37.9872 120.25 35.502V5.50195C120.25 3.01667 118.235 1.00195 115.75 1.00195Z" stroke="#242323"/>
</g>
</g>
</g>
<defs>
<clipPath id="clip0_1103_1520">
<rect width="121" height="41" fill="white" transform="translate(0 0.5)"/>
</clipPath>
<clipPath id="clip1_1103_1520">
<rect width="121" height="41" fill="white" transform="translate(0 0.5)"/>
</clipPath>
<clipPath id="clip2_1103_1520">
<rect width="121" height="41" fill="white" transform="translate(0 0.5)"/>
</clipPath>
</defs>
</svg>
