<svg width="21" height="21" viewBox="0 0 21 21" fill="none" xmlns="http://www.w3.org/2000/svg">
<g clip-path="url(#clip0_1103_1483)">
<g clip-path="url(#clip1_1103_1483)">
<g clip-path="url(#clip2_1103_1483)">
<path d="M20.3008 6.00195C20.3008 6.00195 20.1055 4.62305 19.5039 4.01758C18.7422 3.2207 17.8906 3.2168 17.5 3.16992C14.7031 2.9668 10.5039 2.9668 10.5039 2.9668H10.4961C10.4961 2.9668 6.29688 2.9668 3.5 3.16992C3.10938 3.2168 2.25781 3.2207 1.49609 4.01758C0.894531 4.62305 0.703125 6.00195 0.703125 6.00195C0.703125 6.00195 0.5 7.62305 0.5 9.24023V10.7559C0.5 12.373 0.699219 13.9941 0.699219 13.9941C0.699219 13.9941 0.894531 15.373 1.49219 15.9785C2.25391 16.7754 3.25391 16.748 3.69922 16.834C5.30078 16.9863 10.5 17.0332 10.5 17.0332C10.5 17.0332 14.7031 17.0254 17.5 16.8262C17.8906 16.7793 18.7422 16.7754 19.5039 15.9785C20.1055 15.373 20.3008 13.9941 20.3008 13.9941C20.3008 13.9941 20.5 12.377 20.5 10.7559V9.24023C20.5 7.62305 20.3008 6.00195 20.3008 6.00195ZM8.43359 12.5957V6.97461L13.8359 9.79492L8.43359 12.5957Z" fill="white"/>
</g>
</g>
</g>
<defs>
<clipPath id="clip0_1103_1483">
<rect width="20" height="21" fill="white" transform="translate(0.5)"/>
</clipPath>
<clipPath id="clip1_1103_1483">
<rect width="20" height="21" fill="white" transform="translate(0.5)"/>
</clipPath>
<clipPath id="clip2_1103_1483">
<rect width="20" height="21" fill="white" transform="translate(0.5)"/>
</clipPath>
</defs>
</svg>
