<svg width="21" height="21" viewBox="0 0 21 21" fill="none" xmlns="http://www.w3.org/2000/svg">
<g clip-path="url(#clip0_1103_1461)">
<g clip-path="url(#clip1_1103_1461)">
<g clip-path="url(#clip2_1103_1461)">
<path d="M6.7918 18.1266C14.3371 18.1266 18.4652 11.8738 18.4652 6.45314C18.4652 6.27735 18.4613 6.09767 18.4535 5.92189C19.2566 5.34114 19.9496 4.6218 20.5 3.79767C19.7521 4.13042 18.958 4.34774 18.1449 4.4422C19.0011 3.92901 19.6421 3.12281 19.9492 2.17306C19.1438 2.65038 18.263 2.9871 17.3445 3.16876C16.7257 2.51122 15.9075 2.07585 15.0164 1.92996C14.1253 1.78407 13.211 1.93579 12.4148 2.36167C11.6186 2.78754 10.9848 3.46384 10.6115 4.28601C10.2382 5.10818 10.1462 6.03043 10.3496 6.91017C8.71874 6.82833 7.12328 6.40467 5.66665 5.66667C4.21002 4.92866 2.92474 3.89278 1.89414 2.62618C1.37033 3.52929 1.21005 4.59796 1.44586 5.61499C1.68167 6.63203 2.29589 7.52112 3.16367 8.10157C2.51219 8.08089 1.87498 7.90549 1.30469 7.58985V7.64064C1.3041 8.58838 1.63175 9.50707 2.23192 10.2405C2.8321 10.974 3.66777 11.477 4.59687 11.6641C3.99338 11.8292 3.35999 11.8532 2.7457 11.7344C3.00788 12.5494 3.51798 13.2623 4.20481 13.7735C4.89164 14.2847 5.72093 14.5687 6.57695 14.5859C5.12369 15.7275 3.32848 16.3467 1.48047 16.3438C1.15274 16.3433 0.825333 16.3232 0.5 16.2836C2.37738 17.488 4.56128 18.1277 6.7918 18.1266Z" fill="white"/>
</g>
</g>
</g>
<defs>
<clipPath id="clip0_1103_1461">
<rect width="20" height="21" fill="white" transform="translate(0.5)"/>
</clipPath>
<clipPath id="clip1_1103_1461">
<rect width="20" height="21" fill="white" transform="translate(0.5)"/>
</clipPath>
<clipPath id="clip2_1103_1461">
<rect width="20" height="21" fill="white" transform="translate(0.5)"/>
</clipPath>
</defs>
</svg>
