<svg width="27" height="21" viewBox="0 0 27 21" fill="none" xmlns="http://www.w3.org/2000/svg">
<path d="M0.854492 0.5C0.441992 0.5 0.104492 0.78125 0.104492 1.125C0.104492 1.46875 0.441992 1.75 0.854492 1.75H2.63105C2.9873 1.75 3.29668 1.95703 3.36699 2.25L6.12793 13.5C6.41387 14.6641 7.64199 15.5 9.06699 15.5H23.3545C23.767 15.5 24.1045 15.2188 24.1045 14.875C24.1045 14.5312 23.767 14.25 23.3545 14.25H9.06699C8.35449 14.25 7.74043 13.832 7.59512 13.25L7.22949 11.75H21.9717C23.3498 11.75 24.5498 10.9688 24.8826 9.85547L26.8514 3.30469C27.0857 2.51562 26.3732 1.75 25.3982 1.75H4.7498C4.44043 1.00781 3.59199 0.5 2.63105 0.5H0.854492ZM5.07793 3H25.3936L23.4295 9.55469C23.2607 10.1094 22.6607 10.5 21.9717 10.5H6.92012L5.07793 3ZM7.97949 18.3125C7.97949 18.0639 8.09802 17.8254 8.309 17.6496C8.51998 17.4738 8.80612 17.375 9.10449 17.375C9.40286 17.375 9.68901 17.4738 9.89999 17.6496C10.111 17.8254 10.2295 18.0639 10.2295 18.3125C10.2295 18.5611 10.111 18.7996 9.89999 18.9754C9.68901 19.1512 9.40286 19.25 9.10449 19.25C8.80612 19.25 8.51998 19.1512 8.309 18.9754C8.09802 18.7996 7.97949 18.5611 7.97949 18.3125ZM11.7295 18.3125C11.7295 18.0252 11.6616 17.7408 11.5297 17.4754C11.3978 17.21 11.2044 16.9688 10.9606 16.7657C10.7169 16.5626 10.4275 16.4014 10.109 16.2915C9.79056 16.1816 9.44921 16.125 9.10449 16.125C8.75977 16.125 8.41843 16.1816 8.09995 16.2915C7.78147 16.4014 7.49209 16.5626 7.24834 16.7657C7.00458 16.9688 6.81123 17.21 6.67931 17.4754C6.54739 17.7408 6.47949 18.0252 6.47949 18.3125C6.47949 18.5998 6.54739 18.8842 6.67931 19.1496C6.81123 19.415 7.00458 19.6562 7.24834 19.8593C7.49209 20.0624 7.78147 20.2236 8.09995 20.3335C8.41843 20.4434 8.75977 20.5 9.10449 20.5C9.44921 20.5 9.79056 20.4434 10.109 20.3335C10.4275 20.2236 10.7169 20.0624 10.9606 19.8593C11.2044 19.6562 11.3978 19.415 11.5297 19.1496C11.6616 18.8842 11.7295 18.5998 11.7295 18.3125ZM21.1045 17.375C21.4029 17.375 21.689 17.4738 21.9 17.6496C22.111 17.8254 22.2295 18.0639 22.2295 18.3125C22.2295 18.5611 22.111 18.7996 21.9 18.9754C21.689 19.1512 21.4029 19.25 21.1045 19.25C20.8061 19.25 20.52 19.1512 20.309 18.9754C20.098 18.7996 19.9795 18.5611 19.9795 18.3125C19.9795 18.0639 20.098 17.8254 20.309 17.6496C20.52 17.4738 20.8061 17.375 21.1045 17.375ZM21.1045 20.5C21.8007 20.5 22.4684 20.2695 22.9606 19.8593C23.4529 19.4491 23.7295 18.8927 23.7295 18.3125C23.7295 17.7323 23.4529 17.1759 22.9606 16.7657C22.4684 16.3555 21.8007 16.125 21.1045 16.125C20.4083 16.125 19.7406 16.3555 19.2483 16.7657C18.7561 17.1759 18.4795 17.7323 18.4795 18.3125C18.4795 18.8927 18.7561 19.4491 19.2483 19.8593C19.7406 20.2695 20.4083 20.5 21.1045 20.5Z" fill="#3E321F"/>
</svg>
