<svg width="21" height="21" viewBox="0 0 21 21" fill="none" xmlns="http://www.w3.org/2000/svg">
<path d="M10.1045 19.25C10.7568 19.25 11.6826 18.6875 12.5225 17.0117C12.9092 16.2383 13.2334 15.3047 13.4639 14.25H6.74512C6.97559 15.3047 7.29981 16.2383 7.68652 17.0117C8.52637 18.6875 9.45215 19.25 10.1045 19.25ZM6.52246 13H13.6865C13.7959 12.2109 13.8545 11.3711 13.8545 10.5C13.8545 9.62891 13.7959 8.78906 13.6865 8H6.52246C6.41309 8.78906 6.35449 9.62891 6.35449 10.5C6.35449 11.3711 6.41309 12.2109 6.52246 13ZM6.74512 6.75H13.4639C13.2334 5.69531 12.9092 4.76172 12.5225 3.98828C11.6826 2.3125 10.7568 1.75 10.1045 1.75C9.45215 1.75 8.52637 2.3125 7.68652 3.98828C7.29981 4.76172 6.97559 5.69531 6.74512 6.75ZM14.9482 8C15.0498 8.80078 15.1045 9.63672 15.1045 10.5C15.1045 11.3633 15.0498 12.1992 14.9482 13H18.4951C18.7295 12.207 18.8584 11.3672 18.8584 10.5C18.8584 9.63281 18.7334 8.79297 18.4951 8H14.9482ZM18.0146 6.75C17.0029 4.62109 15.1592 2.96484 12.9014 2.20703C13.7217 3.3125 14.3701 4.89453 14.7451 6.75H18.0186H18.0146ZM5.47168 6.75C5.84668 4.89062 6.49512 3.3125 7.31543 2.20703C5.05371 2.96484 3.20605 4.62109 2.19824 6.75H5.46777H5.47168ZM1.72168 8C1.4873 8.79297 1.3584 9.63281 1.3584 10.5C1.3584 11.3672 1.4834 12.207 1.72168 13H5.26074C5.15918 12.1992 5.10449 11.3633 5.10449 10.5C5.10449 9.63672 5.15918 8.80078 5.26074 8H1.71777H1.72168ZM12.8975 18.793C15.1553 18.0312 16.999 16.3789 18.0107 14.25H14.7412C14.3662 16.1094 13.7178 17.6875 12.8975 18.793ZM7.31152 18.793C6.49121 17.6875 5.84668 16.1055 5.46777 14.25H2.19824C3.20996 16.3789 5.05371 18.0352 7.31152 18.793ZM10.1045 20.5C7.45233 20.5 4.90879 19.4464 3.03342 17.5711C1.15806 15.6957 0.104492 13.1522 0.104492 10.5C0.104492 7.84784 1.15806 5.3043 3.03342 3.42893C4.90879 1.55357 7.45233 0.5 10.1045 0.5C12.7567 0.5 15.3002 1.55357 17.1756 3.42893C19.0509 5.3043 20.1045 7.84784 20.1045 10.5C20.1045 13.1522 19.0509 15.6957 17.1756 17.5711C15.3002 19.4464 12.7567 20.5 10.1045 20.5Z" fill="#3E321F"/>
</svg>
